<?xml version="1.0" encoding="utf-8"?>
<!-- Generator: Adobe Illustrator 26.0.0, SVG Export Plug-In . SVG Version: 6.00 Build 0)  -->
<svg version="1.1"
	 id="Layer_1" xmlns:cc="http://creativecommons.org/ns#" xmlns:dc="http://purl.org/dc/elements/1.1/" xmlns:inkscape="http://www.inkscape.org/namespaces/inkscape" xmlns:rdf="http://www.w3.org/1999/02/22-rdf-syntax-ns#" xmlns:sodipodi="http://sodipodi.sourceforge.net/DTD/sodipodi-0.dtd" xmlns:svg="http://www.w3.org/2000/svg"
	 xmlns="http://www.w3.org/2000/svg" xmlns:xlink="http://www.w3.org/1999/xlink" x="0px" y="0px" viewBox="0 0 297.4 629.2"
	 style="enable-background:new 0 0 297.4 629.2;" xml:space="preserve">
<style type="text/css">
	.st0{fill:#AAAAAA;stroke:#AAAAAA;stroke-miterlimit:10;}
	.st1{fill:#EE3839;}
	.st2{fill:none;stroke:#AAAAAA;stroke-width:1.5;stroke-miterlimit:10;}
	.st3{fill:none;stroke:#EE3839;stroke-width:1.5;stroke-linecap:round;stroke-linejoin:round;stroke-miterlimit:10;}
	.st4{fill:none;stroke:#EE3839;stroke-width:1.5;stroke-linecap:round;stroke-miterlimit:10;}
	.st5{fill:#AAAAAA;}
	.st6{fill:url(#rect1411_00000070798003307137419980000008529981659457300358_);}
	.st7{fill:none;stroke:#EE3839;stroke-width:0.75;stroke-miterlimit:10;}
	.st8{fill:url(#rect1432_00000130622551937899392450000015257992378983964849_);}
	.st9{fill:#FFFFFF;}
	.st10{font-family:'JosefinSans-Bold';}
	.st11{font-size:15px;}
	.st12{fill:none;stroke:#000000;stroke-miterlimit:10;}
	.st13{fill:none;}
	.st14{font-family:'JosefinSans';}
	.st15{font-size:12px;}
</style>
<sodipodi:namedview  bordercolor="#666666" borderopacity="1" gridtolerance="10" guidetolerance="10" id="namedview1467" inkscape:current-layer="Lamp" inkscape:cx="81.63481" inkscape:cy="87.167644" inkscape:document-rotation="0" inkscape:pageopacity="0" inkscape:pageshadow="2" inkscape:window-height="1017" inkscape:window-maximized="1" inkscape:window-width="1920" inkscape:window-x="-8" inkscape:window-y="-8" inkscape:zoom="8.407462" objecttolerance="10" pagecolor="#ffffff" showgrid="false">
	</sodipodi:namedview>
<g>
	<path class="st0" d="M76,215.5H35c-1.7,0-3.1-1.4-3.1-3.1v-49.5c0-1.7,1.4-3.1,3.1-3.1h41c1.7,0,3.1,1.4,3.1,3.1v49.5
		C79.1,214.1,77.7,215.5,76,215.5z"/>
	<g id="Document">
		<path id="rect1290" class="st1" d="M39.7,205.8h33.2c0.6,0,1,0.2,1,0.4l0,0c0,0.2-0.5,0.4-1,0.4H39.7c-0.6,0-1-0.2-1-0.4l0,0
			C38.6,206,39.1,205.8,39.7,205.8z"/>
		<path id="rect1290_00000031192289285484646130000005916300054481951642_" class="st1" d="M39.7,197.6h33.2c0.6,0,1,0.2,1,0.4l0,0
			c0,0.2-0.5,0.4-1,0.4H39.7c-0.6,0-1-0.2-1-0.4l0,0C38.6,197.7,39.1,197.6,39.7,197.6z"/>
		<path id="rect1290_00000134954976199802566680000006418826952640858763_" class="st1" d="M39.7,176.3h33.2c0.6,0,1,0.2,1,0.4l0,0
			c0,0.2-0.5,0.4-1,0.4H39.7c-0.6,0-1-0.2-1-0.4l0,0C38.6,176.5,39.1,176.3,39.7,176.3z"/>
		<path id="rect1290_00000029030014843488023590000005051310086760212407_" class="st1" d="M39.7,184.7h33.2c0.6,0,1,0.2,1,0.4l0,0
			c0,0.2-0.5,0.4-1,0.4H39.7c-0.6,0-1-0.2-1-0.4l0,0C38.6,184.9,39.1,184.7,39.7,184.7z"/>
		<path id="rect1290_00000022558161751959867030000004415887230455778705_" class="st1" d="M39.7,191.1h33.2c0.6,0,1,0.2,1,0.3l0,0
			c0,0.2-0.5,0.3-1,0.3H39.7c-0.6,0-1-0.2-1-0.3l0,0C38.6,191.2,39.1,191.1,39.7,191.1z"/>
		<path id="rect1290_00000156551394665619918540000003162997053576253837_" class="st1" d="M39.2,170.2h19.2c0.3,0,0.6,0.2,0.6,0.4
			l0,0c0,0.2-0.3,0.4-0.6,0.4H39.2c-0.3,0-0.6-0.2-0.6-0.4l0,0C38.6,170.4,38.9,170.2,39.2,170.2z"/>
	</g>
</g>
<g id="Lamp">
	<path id="path1311" class="st2" d="M57.1,95.6v1c0,0.7-0.6,1.3-1.3,1.3l0,0h-1c-0.7,0-1.3-0.6-1.3-1.3l0,0v-1"/>
	<path id="path1313" class="st3" d="M52.1,85.4V71.3c0,0-1.5-2.2-3.1,0s6.4,1.8,6.4,1.8"/>
	<path id="path1315" class="st3" d="M58.7,85.9V71.3c0,0,1.6-2.2,3.1,0c1.6,2.2-6.5,1.8-6.5,1.8"/>
	<line id="line1317" class="st4" x1="28.6" y1="69.7" x2="32.8" y2="69.7"/>
	<line id="line1319" class="st4" x1="31" y1="57.9" x2="34.5" y2="59.4"/>
	<line id="line1321" class="st4" x1="39.4" y1="47.7" x2="41.8" y2="51.2"/>
	<line id="line1323" class="st4" x1="55.9" y1="42.6" x2="55.9" y2="46.5"/>
	<line id="line1325" class="st4" x1="71.6" y1="47.7" x2="69.4" y2="51.2"/>
	<line id="line1327" class="st4" x1="79.5" y1="57.9" x2="76" y2="59.4"/>
	<line id="line1329" class="st4" x1="82" y1="69.7" x2="77.6" y2="69.7"/>
	<path id="path1331" class="st2" d="M60.5,85.4v8.4c0,0.7-0.6,1.3-1.3,1.3h-7.7c-0.7,0-1.3-0.6-1.3-1.3v-8.4"/>
	<ellipse id="ellipse1333" class="st2" cx="55.9" cy="69.7" rx="16.5" ry="16.7"/>
	<line id="line1337" class="st2" x1="50.1" y1="92" x2="60.5" y2="92"/>
	<line id="line1339" class="st2" x1="50.1" y1="88.6" x2="60.5" y2="88.6"/>
</g>
<g id="Approve">
	<ellipse id="ellipse1342" class="st0" cx="57.3" cy="307.5" rx="23.4" ry="23.4"/>
	<path id="path1344" class="st1" d="M57.8,323.1L57.8,323.1c-1.1,0.8-2.6,0.6-3.4-0.5l-0.1-0.1l-12.2-18.4c-0.8-1.2-0.5-2.8,0.6-3.6
		l0,0c1.1-0.8,2.6-0.6,3.4,0.5l0.1,0.1l12.2,18.4C59.2,320.7,58.9,322.3,57.8,323.1z"/>
	<path id="path1346" class="st1" d="M54.8,322.8L54.8,322.8c-1.2-1-1.4-2.6-0.5-3.9l25.1-31.5c0.9-1.1,2.5-1.2,3.6-0.3l0.1,0.1l0,0
		c1.1,1,1.4,2.6,0.5,3.9l-25.1,31.5c-0.9,1.1-2.5,1.2-3.5,0.3C54.9,322.9,54.8,322.9,54.8,322.8z"/>
</g>
<g id="Developer_Machine">
	<rect id="rect1407" x="47.1" y="440.5" class="st5" width="22.4" height="14.1"/>
	<path id="rect1409" class="st0" d="M22.8,399.4h71c2.4,0,4.3,1.9,4.3,4.3v39.4c0,2.4-1.9,4.3-4.3,4.3h-71c-2.4,0-4.3-1.9-4.3-4.3
		v-39.3C18.5,401.4,20.4,399.4,22.8,399.4z"/>
	
		<linearGradient id="rect1411_00000025408886765273228650000003423152191409042341_" gradientUnits="userSpaceOnUse" x1="22" y1="1263.2498" x2="94.4" y2="1263.2498" gradientTransform="matrix(1 0 0 1 0 -839.9998)">
		<stop  offset="0" style="stop-color:#FFFFFF"/>
		<stop  offset="1" style="stop-color:#FFFFFF"/>
	</linearGradient>
	
		<rect id="rect1411" x="22" y="403.1" style="fill:url(#rect1411_00000025408886765273228650000003423152191409042341_);" width="72.4" height="40.3"/>
	<path id="rect1413" class="st0" d="M46,454.1h23.9c0.3,0,0.6,0.3,0.6,0.6v0.2c0,0.3-0.3,0.6-0.6,0.6H46c-0.3,0-0.6-0.3-0.6-0.6
		v-0.2C45.4,454.3,45.7,454.1,46,454.1z"/>
	<rect id="rect1415" x="48.1" y="409.2" class="st1" width="20.8" height="5.6"/>
	<rect id="rect1417" x="50.2" y="417.8" class="st1" width="16.2" height="5.6"/>
	<rect id="rect1419" x="47.1" y="427.9" class="st1" width="22.4" height="9.6"/>
	<line id="line1421" class="st7" x1="58.3" y1="427.9" x2="58.3" y2="423.5"/>
	<line id="line1423" class="st7" x1="58.3" y1="417.8" x2="58.3" y2="414.8"/>
</g>
<g id="Implement_Machine">
	<path id="rect1426" class="st0" d="M45.1,578.8h24c0.3,0,0.6,0.3,0.6,0.6v0.2c0,0.3-0.3,0.6-0.6,0.6h-24c-0.3,0-0.6-0.3-0.6-0.6
		v-0.2C44.5,579,44.8,578.8,45.1,578.8z"/>
	<rect id="rect1428" x="46.2" y="565.2" class="st5" width="22.4" height="14.1"/>
	<path id="rect1430" class="st0" d="M21.9,524.1h70.9c2.4,0,4.3,1.9,4.3,4.3v39.4c0,2.4-1.9,4.3-4.3,4.3H21.9
		c-2.4,0-4.3-1.9-4.3-4.3v-39.3C17.6,526.1,19.5,524.1,21.9,524.1z"/>
	
		<linearGradient id="rect1432_00000165195953658413582820000008458984599783767955_" gradientUnits="userSpaceOnUse" x1="21.1" y1="1387.9497" x2="93.5" y2="1387.9497" gradientTransform="matrix(1 0 0 1 0 -839.9998)">
		<stop  offset="0" style="stop-color:#FFFFFF"/>
		<stop  offset="1" style="stop-color:#FFFFFF"/>
	</linearGradient>
	
		<rect id="rect1432" x="21.1" y="527.8" style="fill:url(#rect1432_00000165195953658413582820000008458984599783767955_);" width="72.4" height="40.3"/>
	<circle id="circle1434" class="st1" cx="57.1" cy="548.2" r="13.9"/>
	<path id="path1436" class="st9" d="M52.7,542.3v12.9c0,0.5,0.4,0.9,0.9,0.9c0.2,0,0.3-0.1,0.5-0.1l9.9-6.4c0.4-0.3,0.6-0.9,0.3-1.3
		c-0.1-0.1-0.2-0.2-0.3-0.3l-9.9-6.4c-0.4-0.3-1-0.2-1.3,0.3C52.8,541.9,52.7,542.1,52.7,542.3z"/>
</g>
<text transform="matrix(1 0 0 1 156.0342 35.176)" class="st10 st11">REQUEST</text>
<line class="st12" x1="105.5" y1="70.8" x2="138.4" y2="70.9"/>
<rect x="13.4" y="178.6" class="st13" width="94.4" height="103.3"/>
<line class="st12" x1="107.4" y1="188.4" x2="140.3" y2="188.5"/>
<text transform="matrix(1 0 0 1 156.034 160.4379)" class="st10 st11">ANALYSIS</text>
<line class="st12" x1="108.3" y1="305.3" x2="141.2" y2="305.4"/>
<text transform="matrix(1 0 0 1 156.9702 277.3383)" class="st10 st11">APPROVAL</text>
<polygon class="st13" points="169.8,276.3 222.2,276.3 222.2,276.3 "/>
<line class="st12" x1="109.3" y1="425.4" x2="142.2" y2="425.5"/>
<text transform="matrix(1 0 0 1 157.9062 397.4244)" class="st10 st11">DEVELOPMENT</text>
<line class="st12" x1="108.3" y1="547.4" x2="141.2" y2="547.5"/>
<text transform="matrix(1 0 0 1 156.9701 519.4293)" class="st10 st11">PRODUCTION</text>
<rect x="155.2" y="48.8" class="st13" width="117.8" height="75.1"/>
<text transform="matrix(1 0 0 1 155.2317 57.8347)"><tspan x="0" y="0" class="st14 st15">Send a message or </tspan><tspan x="0" y="14.4" class="st14 st15">schedule a meeting to </tspan><tspan x="0" y="28.8" class="st14 st15">talk about the company </tspan><tspan x="0" y="43.2" class="st14 st15">and possible ideas of </tspan><tspan x="0" y="57.6" class="st14 st15">automation.</tspan></text>
<rect x="155.2" y="171" class="st13" width="117.8" height="44.5"/>
<text transform="matrix(1 0 0 1 155.2317 179.9998)"><tspan x="0" y="0" class="st14 st15">Analysis of processes </tspan><tspan x="0" y="14.4" class="st14 st15">and discussions about </tspan><tspan x="0" y="28.8" class="st14 st15">what to develop.</tspan></text>
<rect x="157.2" y="293.3" class="st13" width="117.8" height="48.6"/>
<text transform="matrix(1 0 0 1 157.1501 302.3347)"><tspan x="0" y="0" class="st14 st15">Client’s approval to </tspan><tspan x="0" y="14.4" class="st14 st15">develop automations </tspan><tspan x="0" y="28.8" class="st14 st15">based on analysis.</tspan></text>
<rect x="158.2" y="410" class="st13" width="117.8" height="45.5"/>
<text transform="matrix(1 0 0 1 158.1506 418.9846)"><tspan x="0" y="0" class="st14 st15">Development and tests </tspan><tspan x="0" y="14.4" class="st14 st15">using UiPath or </tspan><tspan x="0" y="28.8" class="st14 st15">Power Automate.</tspan></text>
<rect x="157.2" y="530.5" class="st13" width="117.8" height="48.3"/>
<text transform="matrix(1 0 0 1 157.1506 539.5356)"><tspan x="0" y="0" class="st14 st15">Implementation of the </tspan><tspan x="0" y="14.4" class="st14 st15">process and insight </tspan><tspan x="0" y="28.8" class="st14 st15">analysis.</tspan></text>
</svg>
