<?xml version="1.0" encoding="utf-8"?>
<!-- Generator: Adobe Illustrator 26.0.0, SVG Export Plug-In . SVG Version: 6.00 Build 0)  -->
<svg version="1.1"
	 id="Layer_1" xmlns:cc="http://creativecommons.org/ns#" xmlns:dc="http://purl.org/dc/elements/1.1/" xmlns:inkscape="http://www.inkscape.org/namespaces/inkscape" xmlns:rdf="http://www.w3.org/1999/02/22-rdf-syntax-ns#" xmlns:sodipodi="http://sodipodi.sourceforge.net/DTD/sodipodi-0.dtd" xmlns:svg="http://www.w3.org/2000/svg"
	 xmlns="http://www.w3.org/2000/svg" xmlns:xlink="http://www.w3.org/1999/xlink" x="0px" y="0px" viewBox="0 0 297.4 581.5"
	 style="enable-background:new 0 0 297.4 581.5;" xml:space="preserve">
<style type="text/css">
	.st0{fill:#AAAAAA;stroke:#AAAAAA;stroke-miterlimit:10;}
	.st1{fill:#EE3839;}
	.st2{fill:none;stroke:#AAAAAA;stroke-width:1.5;stroke-miterlimit:10;}
	.st3{fill:none;stroke:#EE3839;stroke-width:1.5;stroke-linecap:round;stroke-linejoin:round;stroke-miterlimit:10;}
	.st4{fill:none;stroke:#EE3839;stroke-width:1.5;stroke-linecap:round;stroke-miterlimit:10;}
	.st5{fill:#AAAAAA;}
	.st6{fill:url(#rect1411_00000142891202840462545930000006952995728004387208_);}
	.st7{fill:none;stroke:#EE3839;stroke-width:0.75;stroke-miterlimit:10;}
	.st8{fill:url(#rect1432_00000140716735294380202140000015261289738932838832_);}
	.st9{fill:#FFFFFF;}
	.st10{font-family:'JosefinSans-Bold';}
	.st11{font-size:15px;}
	.st12{fill:none;stroke:#000000;stroke-linecap:round;stroke-miterlimit:10;}
	.st13{fill:none;}
	.st14{font-family:'JosefinSans';}
	.st15{font-size:12px;}
</style>
<sodipodi:namedview  bordercolor="#666666" borderopacity="1" gridtolerance="10" guidetolerance="10" id="namedview1467" inkscape:current-layer="Lamp" inkscape:cx="81.63481" inkscape:cy="87.167644" inkscape:document-rotation="0" inkscape:pageopacity="0" inkscape:pageshadow="2" inkscape:window-height="1017" inkscape:window-maximized="1" inkscape:window-width="1920" inkscape:window-x="-8" inkscape:window-y="-8" inkscape:zoom="8.407462" objecttolerance="10" pagecolor="#ffffff" showgrid="false">
	</sodipodi:namedview>
<g>
	<path class="st0" d="M77,207.7H36c-1.7,0-3.1-1.4-3.1-3.1v-49.5c0-1.7,1.4-3.1,3.1-3.1h41c1.7,0,3.1,1.4,3.1,3.1v49.5
		C80.1,206.3,78.7,207.7,77,207.7z"/>
	<g id="Document">
		<path id="rect1290" class="st1" d="M40.7,198h33.2c0.6,0,1,0.2,1,0.4l0,0c0,0.2-0.5,0.4-1,0.4H40.7c-0.6,0-1-0.2-1-0.4l0,0
			C39.6,198.2,40.1,198,40.7,198z"/>
		<path id="rect1290_00000031192289285484646130000005916300054481951642_" class="st1" d="M40.7,189.8h33.2c0.6,0,1,0.2,1,0.4l0,0
			c0,0.2-0.5,0.4-1,0.4H40.7c-0.6,0-1-0.2-1-0.4l0,0C39.6,189.9,40.1,189.8,40.7,189.8z"/>
		<path id="rect1290_00000134954976199802566680000006418826952640858763_" class="st1" d="M40.7,168.5h33.2c0.6,0,1,0.2,1,0.4l0,0
			c0,0.2-0.5,0.4-1,0.4H40.7c-0.6,0-1-0.2-1-0.4l0,0C39.6,168.7,40.1,168.5,40.7,168.5z"/>
		<path id="rect1290_00000029030014843488023590000005051310086760212407_" class="st1" d="M40.7,176.9h33.2c0.6,0,1,0.2,1,0.4l0,0
			c0,0.2-0.5,0.4-1,0.4H40.7c-0.6,0-1-0.2-1-0.4l0,0C39.6,177.1,40.1,176.9,40.7,176.9z"/>
		<path id="rect1290_00000022558161751959867030000004415887230455778705_" class="st1" d="M40.7,183.3h33.2c0.6,0,1,0.2,1,0.3l0,0
			c0,0.2-0.5,0.3-1,0.3H40.7c-0.6,0-1-0.2-1-0.3l0,0C39.6,183.4,40.1,183.3,40.7,183.3z"/>
		<path id="rect1290_00000156551394665619918540000003162997053576253837_" class="st1" d="M40.2,162.4h19.2c0.3,0,0.6,0.2,0.6,0.4
			l0,0c0,0.2-0.3,0.4-0.6,0.4H40.2c-0.3,0-0.6-0.2-0.6-0.4l0,0C39.6,162.6,39.9,162.4,40.2,162.4z"/>
	</g>
</g>
<g id="Lamp">
	<path id="path1311" class="st2" d="M58.1,87.8v1c0,0.7-0.6,1.3-1.3,1.3l0,0h-1c-0.7,0-1.3-0.6-1.3-1.3l0,0v-1"/>
	<path id="path1313" class="st3" d="M53.1,77.6V63.5c0,0-1.5-2.2-3.1,0s6.4,1.8,6.4,1.8"/>
	<path id="path1315" class="st3" d="M59.7,78.1V63.5c0,0,1.6-2.2,3.1,0c1.6,2.2-6.5,1.8-6.5,1.8"/>
	<line id="line1317" class="st4" x1="29.6" y1="61.9" x2="33.8" y2="61.9"/>
	<line id="line1319" class="st4" x1="32" y1="50.1" x2="35.5" y2="51.6"/>
	<line id="line1321" class="st4" x1="40.4" y1="39.9" x2="42.8" y2="43.4"/>
	<line id="line1323" class="st4" x1="56.9" y1="34.8" x2="56.9" y2="38.7"/>
	<line id="line1325" class="st4" x1="72.6" y1="39.9" x2="70.4" y2="43.4"/>
	<line id="line1327" class="st4" x1="80.5" y1="50.1" x2="77" y2="51.6"/>
	<line id="line1329" class="st4" x1="83" y1="61.9" x2="78.6" y2="61.9"/>
	<path id="path1331" class="st2" d="M61.5,77.6V86c0,0.7-0.6,1.3-1.3,1.3h-7.7c-0.7,0-1.3-0.6-1.3-1.3v-8.4"/>
	<ellipse id="ellipse1333" class="st2" cx="56.9" cy="61.9" rx="16.5" ry="16.7"/>
	<line id="line1337" class="st2" x1="51.1" y1="84.2" x2="61.5" y2="84.2"/>
	<line id="line1339" class="st2" x1="51.1" y1="80.8" x2="61.5" y2="80.8"/>
</g>
<g id="Approve">
	<ellipse id="ellipse1342" class="st0" cx="56.3" cy="299.7" rx="23.4" ry="23.4"/>
	<path id="path1344" class="st1" d="M56.8,315.3L56.8,315.3c-1.1,0.8-2.6,0.6-3.4-0.5l-0.1-0.1l-12.2-18.4c-0.8-1.2-0.5-2.8,0.6-3.6
		l0,0c1.1-0.8,2.6-0.6,3.4,0.5l0.1,0.1l12.2,18.4C58.2,312.9,57.9,314.5,56.8,315.3z"/>
	<path id="path1346" class="st1" d="M53.8,315L53.8,315c-1.2-1-1.4-2.6-0.5-3.9l25.1-31.5c0.9-1.1,2.5-1.2,3.6-0.3l0.1,0.1l0,0
		c1.1,1,1.4,2.6,0.5,3.9l-25.1,31.5c-0.9,1.1-2.5,1.2-3.5,0.3C53.9,315.1,53.8,315.1,53.8,315z"/>
</g>
<g id="Developer_Machine">
	<rect id="rect1407" x="45.9" y="432.8" class="st5" width="22.4" height="14.1"/>
	<path id="rect1409" class="st0" d="M21.6,391.7h71c2.4,0,4.3,1.9,4.3,4.3v39.4c0,2.4-1.9,4.3-4.3,4.3h-71c-2.4,0-4.3-1.9-4.3-4.3
		v-39.3C17.3,393.7,19.2,391.7,21.6,391.7z"/>
	
		<linearGradient id="rect1411_00000058551618647742030930000004098049043688209343_" gradientUnits="userSpaceOnUse" x1="20.8" y1="1255.5171" x2="93.2" y2="1255.5171" gradientTransform="matrix(1 0 0 1 0 -839.9998)">
		<stop  offset="0" style="stop-color:#FFFFFF"/>
		<stop  offset="1" style="stop-color:#FFFFFF"/>
	</linearGradient>
	
		<rect id="rect1411" x="20.8" y="395.4" style="fill:url(#rect1411_00000058551618647742030930000004098049043688209343_);" width="72.4" height="40.3"/>
	<path id="rect1413" class="st0" d="M44.8,446.4h23.9c0.3,0,0.6,0.3,0.6,0.6v0.2c0,0.3-0.3,0.6-0.6,0.6H44.8c-0.3,0-0.6-0.3-0.6-0.6
		V447C44.2,446.6,44.5,446.4,44.8,446.4z"/>
	<rect id="rect1415" x="46.9" y="401.5" class="st1" width="20.8" height="5.6"/>
	<rect id="rect1417" x="49" y="410.1" class="st1" width="16.2" height="5.6"/>
	<rect id="rect1419" x="45.9" y="420.2" class="st1" width="22.4" height="9.6"/>
	<line id="line1421" class="st7" x1="57.1" y1="420.2" x2="57.1" y2="415.8"/>
	<line id="line1423" class="st7" x1="57.1" y1="410.1" x2="57.1" y2="407.1"/>
</g>
<g id="Implement_Machine">
	<path id="rect1426" class="st0" d="M45.1,571h24c0.3,0,0.6,0.3,0.6,0.6v0.2c0,0.3-0.3,0.6-0.6,0.6h-24c-0.3,0-0.6-0.3-0.6-0.6v-0.2
		C44.5,571.2,44.8,571,45.1,571z"/>
	<rect id="rect1428" x="46.2" y="557.4" class="st5" width="22.4" height="14.1"/>
	<path id="rect1430" class="st0" d="M21.9,516.3h70.9c2.4,0,4.3,1.9,4.3,4.3V560c0,2.4-1.9,4.3-4.3,4.3H21.9c-2.4,0-4.3-1.9-4.3-4.3
		v-39.3C17.6,518.3,19.5,516.3,21.9,516.3z"/>
	
		<linearGradient id="rect1432_00000029026077400195617960000015421252745252003219_" gradientUnits="userSpaceOnUse" x1="21.1" y1="1380.1671" x2="93.5" y2="1380.1671" gradientTransform="matrix(1 0 0 1 0 -839.9998)">
		<stop  offset="0" style="stop-color:#FFFFFF"/>
		<stop  offset="1" style="stop-color:#FFFFFF"/>
	</linearGradient>
	
		<rect id="rect1432" x="21.1" y="520" style="fill:url(#rect1432_00000029026077400195617960000015421252745252003219_);" width="72.4" height="40.3"/>
	<circle id="circle1434" class="st1" cx="57.1" cy="540.4" r="13.9"/>
	<path id="path1436" class="st9" d="M52.7,534.5v12.9c0,0.5,0.4,0.9,0.9,0.9c0.2,0,0.3-0.1,0.5-0.1l9.9-6.4c0.4-0.3,0.6-0.9,0.3-1.3
		c-0.1-0.1-0.2-0.2-0.3-0.3l-9.9-6.4c-0.4-0.3-1-0.2-1.3,0.3C52.8,534.1,52.7,534.3,52.7,534.5z"/>
</g>
<text transform="matrix(1 0 0 1 156.0342 27.3934)" class="st10 st11">REQUEST</text>
<line class="st12" x1="105.5" y1="63" x2="138.4" y2="63.1"/>
<rect x="13.4" y="170.8" class="st13" width="94.4" height="103.3"/>
<line class="st12" x1="107.4" y1="180.6" x2="140.3" y2="180.7"/>
<text transform="matrix(1 0 0 1 156.034 152.6553)" class="st10 st11">ANALYSIS</text>
<line class="st12" x1="108.3" y1="297.5" x2="141.2" y2="297.6"/>
<text transform="matrix(1 0 0 1 156.9702 269.5557)" class="st10 st11">APPROVAL</text>
<polygon class="st13" points="169.8,268.5 222.2,268.5 222.2,268.5 "/>
<line class="st12" x1="109.3" y1="417.6" x2="142.2" y2="417.7"/>
<text transform="matrix(1 0 0 1 157.9062 389.6418)" class="st10 st11">DEVELOPMENT</text>
<line class="st12" x1="108.3" y1="539.6" x2="141.2" y2="539.7"/>
<text transform="matrix(1 0 0 1 156.9701 511.6467)" class="st10 st11">PRODUCTION</text>
<rect x="155.2" y="41.1" class="st13" width="117.8" height="75.1"/>
<text transform="matrix(1 0 0 1 155.2317 50.052)"><tspan x="0" y="0" class="st14 st15">Send a message or </tspan><tspan x="0" y="14.4" class="st14 st15">schedule a meeting to </tspan><tspan x="0" y="28.8" class="st14 st15">talk about the company </tspan><tspan x="0" y="43.2" class="st14 st15">and possible ideas of </tspan><tspan x="0" y="57.6" class="st14 st15">automation.</tspan></text>
<rect x="155.2" y="163.2" class="st13" width="117.8" height="44.5"/>
<text transform="matrix(1 0 0 1 155.2317 172.2172)"><tspan x="0" y="0" class="st14 st15">Analysis of processes </tspan><tspan x="0" y="14.4" class="st14 st15">and discussions about </tspan><tspan x="0" y="28.8" class="st14 st15">what to develop.</tspan></text>
<rect x="157.2" y="285.6" class="st13" width="117.8" height="48.6"/>
<text transform="matrix(1 0 0 1 157.1501 294.552)"><tspan x="0" y="0" class="st14 st15">Client’s approval to </tspan><tspan x="0" y="14.4" class="st14 st15">develop automations </tspan><tspan x="0" y="28.8" class="st14 st15">based on analysis.</tspan></text>
<rect x="158.2" y="402.2" class="st13" width="117.8" height="45.5"/>
<text transform="matrix(1 0 0 1 158.1506 411.202)"><tspan x="0" y="0" class="st14 st15">Development and tests </tspan><tspan x="0" y="14.4" class="st14 st15">using UiPath or </tspan><tspan x="0" y="28.8" class="st14 st15">Power Automate.</tspan></text>
<rect x="157.2" y="522.8" class="st13" width="117.8" height="48.3"/>
<text transform="matrix(1 0 0 1 157.1506 531.753)"><tspan x="0" y="0" class="st14 st15">Implementation of the </tspan><tspan x="0" y="14.4" class="st14 st15">process and insight </tspan><tspan x="0" y="28.8" class="st14 st15">analysis.</tspan></text>
</svg>
