<?xml version="1.0" encoding="utf-8"?>
<!-- Generator: Adobe Illustrator 26.0.0, SVG Export Plug-In . SVG Version: 6.00 Build 0)  -->
<svg version="1.1" id="Layer_1" xmlns="http://www.w3.org/2000/svg" xmlns:xlink="http://www.w3.org/1999/xlink" x="0px" y="0px"
	 viewBox="0 0 494.6 1294.5" style="enable-background:new 0 0 494.6 1294.5;" xml:space="preserve">
<style type="text/css">
	.st0{fill:#353535;}
	.st1{fill:#D8D8D8;}
	.st2{fill:#EE3839;}
	.st3{fill:#919191;}
	.st4{fill:none;}
	.st5{fill:#FFFFFF;}
	.st6{font-family:'JosefinSans-Bold';}
	.st7{font-size:50px;}
	.st8{fill:#515151;}
	.st9{fill:#CC1721;}
	.st10{fill:#6D6D6D;}
	.st11{enable-background:new    ;}
	.st12{font-size:36px;}
</style>
<rect x="28" y="24" class="st0" width="443" height="200.5"/>
<rect x="28" y="224.5" class="st1" width="443" height="219"/>
<rect x="28" y="443.5" class="st2" width="443" height="201.3"/>
<rect x="28" y="644.1" class="st1" width="443" height="215"/>
<rect x="28" y="859.9" class="st3" width="443" height="199.5"/>
<rect x="28" y="1059.3" class="st1" width="443" height="210.8"/>
<rect x="67.3" y="72" class="st4" width="367.8" height="194.1"/>
<text transform="matrix(1 0 0 1 67.3042 109.5435)" class="st5 st6 st7">Development</text>
<text transform="matrix(1 0 0 1 65.5869 509.0867)" class="st5 st6 st7">Task Mining</text>
<rect x="508.5" y="934.4" class="st4" width="367.8" height="194.1"/>
<text transform="matrix(1 0 0 1 65.5369 923.3328)" class="st5 st6 st7">Documentation</text>
<g>
	<rect x="426" y="179" class="st8" width="45" height="45"/>
	<rect x="381" y="134.7" class="st8" width="45.1" height="44.4"/>
	<rect x="335.8" y="179" class="st8" width="45.1" height="45"/>
	<rect x="426" y="90.3" class="st8" width="45" height="44.4"/>
</g>
<g>
	<rect x="28" y="599.9" class="st9" width="44.3" height="43.6"/>
	<rect x="72.3" y="556.3" class="st9" width="44.3" height="43.6"/>
	<rect x="116.6" y="599.9" class="st9" width="44.3" height="43.6"/>
</g>
<g>
	<rect x="284.6" y="1012.8" class="st10" width="46.6" height="46.5"/>
	<rect x="331.2" y="966.6" class="st10" width="46.6" height="46.5"/>
	<rect x="377.8" y="1012.8" class="st10" width="46.6" height="46.5"/>
	<rect x="424.4" y="966.6" class="st10" width="46.6" height="46.5"/>
</g>
<text transform="matrix(1 0 0 1 67.3 292.3755)" class="st11"><tspan x="0" y="0" class="st6 st12">Development of robots </tspan><tspan x="0" y="43.2" class="st6 st12">based on clients requests </tspan><tspan x="0" y="86.4" class="st6 st12">or on task mining. </tspan></text>
<text transform="matrix(1 0 0 1 72.265 695.989)" class="st11"><tspan x="0" y="0" class="st6 st12">Deep analysis to </tspan><tspan x="0" y="43.2" class="st6 st12">discovery possibilities </tspan><tspan x="0" y="86.4" class="st6 st12">of automation</tspan><tspan x="0" y="129.6" class="st6 st12">across the company.</tspan></text>
<text transform="matrix(1 0 0 1 74.4253 1105.1011)" class="st11"><tspan x="0" y="0" class="st6 st12">Detailed documentation </tspan><tspan x="0" y="43.2" class="st6 st12">of automated processes, </tspan><tspan x="0" y="86.4" class="st6 st12">flow diagram and ROI </tspan><tspan x="0" y="129.6" class="st6 st12">calculation.  </tspan></text>
</svg>
