<?xml version="1.0" encoding="utf-8"?>
<!-- Generator: Adobe Illustrator 26.0.0, SVG Export Plug-In . SVG Version: 6.00 Build 0)  -->
<svg version="1.1"
	 id="Layer_1" xmlns:cc="http://creativecommons.org/ns#" xmlns:dc="http://purl.org/dc/elements/1.1/" xmlns:inkscape="http://www.inkscape.org/namespaces/inkscape" xmlns:rdf="http://www.w3.org/1999/02/22-rdf-syntax-ns#" xmlns:sodipodi="http://sodipodi.sourceforge.net/DTD/sodipodi-0.dtd" xmlns:svg="http://www.w3.org/2000/svg"
	 xmlns="http://www.w3.org/2000/svg" xmlns:xlink="http://www.w3.org/1999/xlink" x="0px" y="0px" viewBox="0 0 691.8 348.5"
	 style="enable-background:new 0 0 691.8 348.5;" xml:space="preserve">
<style type="text/css">
	.st0{fill:#AAAAAA;stroke:#AAAAAA;stroke-miterlimit:10;}
	.st1{fill:#EE3839;}
	.st2{fill:none;stroke:#AAAAAA;stroke-width:1.5;stroke-miterlimit:10;}
	.st3{fill:none;stroke:#EE3839;stroke-width:1.5;stroke-linecap:round;stroke-linejoin:round;stroke-miterlimit:10;}
	.st4{fill:none;stroke:#EE3839;stroke-width:1.5;stroke-linecap:round;stroke-miterlimit:10;}
	.st5{fill:#AAAAAA;}
	.st6{fill:url(#rect1411_00000056411205269078596290000009390725837867455380_);}
	.st7{fill:none;stroke:#EE3839;stroke-width:0.75;stroke-miterlimit:10;}
	.st8{fill:url(#rect1432_00000152977523315461021580000013434739523646125245_);}
	.st9{fill:#FFFFFF;}
	.st10{font-family:'JosefinSans-Bold';}
	.st11{font-size:15px;}
	.st12{stroke:#000000;stroke-miterlimit:10;}
	.st13{fill:none;}
	.st14{font-family:'MyriadPro-Regular';}
	.st15{font-size:12px;}
	.st16{letter-spacing:2;}
	.st17{letter-spacing:7;}
	.st18{letter-spacing:3;}
</style>
<path class="st0" d="M208.5,120.9h-41c-1.7,0-3.1-1.4-3.1-3.1V68.3c0-1.7,1.4-3.1,3.1-3.1h41c1.7,0,3.1,1.4,3.1,3.1v49.5
	C211.6,119.5,210.2,120.9,208.5,120.9z"/>
<sodipodi:namedview  bordercolor="#666666" borderopacity="1" gridtolerance="10" guidetolerance="10" id="namedview1467" inkscape:current-layer="Lamp" inkscape:cx="81.63481" inkscape:cy="87.167644" inkscape:document-rotation="0" inkscape:pageopacity="0" inkscape:pageshadow="2" inkscape:window-height="1017" inkscape:window-maximized="1" inkscape:window-width="1920" inkscape:window-x="-8" inkscape:window-y="-8" inkscape:zoom="8.407462" objecttolerance="10" pagecolor="#ffffff" showgrid="false">
	</sodipodi:namedview>
<g id="Document">
	<path id="rect1290" class="st1" d="M172.2,111.2h33.2c0.6,0,1,0.2,1,0.4l0,0c0,0.2-0.5,0.4-1,0.4h-33.2c-0.6,0-1-0.2-1-0.4l0,0
		C171.1,111.4,171.6,111.2,172.2,111.2z"/>
	<path id="rect1290_00000031192289285484646130000005916300054481951642_" class="st1" d="M172.2,103h33.2c0.6,0,1,0.2,1,0.4l0,0
		c0,0.2-0.5,0.4-1,0.4h-33.2c-0.6,0-1-0.2-1-0.4l0,0C171.1,103.1,171.6,103,172.2,103z"/>
	<path id="rect1290_00000134954976199802566680000006418826952640858763_" class="st1" d="M172.2,81.7h33.2c0.6,0,1,0.2,1,0.4l0,0
		c0,0.2-0.5,0.4-1,0.4h-33.2c-0.6,0-1-0.2-1-0.4l0,0C171.1,81.9,171.6,81.7,172.2,81.7z"/>
	<path id="rect1290_00000029030014843488023590000005051310086760212407_" class="st1" d="M172.2,90.1h33.2c0.6,0,1,0.2,1,0.4l0,0
		c0,0.2-0.5,0.4-1,0.4h-33.2c-0.6,0-1-0.2-1-0.4l0,0C171.1,90.3,171.6,90.1,172.2,90.1z"/>
	<path id="rect1290_00000022558161751959867030000004415887230455778705_" class="st1" d="M172.2,96.5h33.2c0.6,0,1,0.2,1,0.3l0,0
		c0,0.2-0.5,0.3-1,0.3h-33.2c-0.6,0-1-0.2-1-0.3l0,0C171.1,96.6,171.6,96.5,172.2,96.5z"/>
	<path id="rect1290_00000156551394665619918540000003162997053576253837_" class="st1" d="M171.7,75.6h19.2c0.3,0,0.6,0.2,0.6,0.4
		l0,0c0,0.2-0.3,0.4-0.6,0.4h-19.2c-0.3,0-0.6-0.2-0.6-0.4l0,0C171.1,75.8,171.4,75.6,171.7,75.6z"/>
</g>
<g id="Lamp">
	<path id="path1311" class="st2" d="M44,113.3v1c0,0.7-0.6,1.3-1.3,1.3l0,0h-1c-0.7,0-1.3-0.6-1.3-1.3l0,0v-1"/>
	<path id="path1313" class="st3" d="M39,103.1V89c0,0-1.5-2.2-3.1,0c-1.6,2.2,6.4,1.8,6.4,1.8"/>
	<path id="path1315" class="st3" d="M45.6,103.6V89c0,0,1.6-2.2,3.1,0c1.6,2.2-6.5,1.8-6.5,1.8"/>
	<line id="line1317" class="st4" x1="15.5" y1="87.4" x2="19.7" y2="87.4"/>
	<line id="line1319" class="st4" x1="17.9" y1="75.6" x2="21.4" y2="77.1"/>
	<line id="line1321" class="st4" x1="26.3" y1="65.4" x2="28.7" y2="68.9"/>
	<line id="line1323" class="st4" x1="42.8" y1="60.3" x2="42.8" y2="64.2"/>
	<line id="line1325" class="st4" x1="58.5" y1="65.4" x2="56.3" y2="68.9"/>
	<line id="line1327" class="st4" x1="66.4" y1="75.6" x2="62.9" y2="77.1"/>
	<line id="line1329" class="st4" x1="68.9" y1="87.4" x2="64.5" y2="87.4"/>
	<path id="path1331" class="st2" d="M47.4,103.1v8.4c0,0.7-0.6,1.3-1.3,1.3h-7.7c-0.7,0-1.3-0.6-1.3-1.3v-8.4"/>
	<ellipse id="ellipse1333" class="st2" cx="42.8" cy="87.4" rx="16.5" ry="16.7"/>
	<line id="line1337" class="st2" x1="37" y1="109.7" x2="47.4" y2="109.7"/>
	<line id="line1339" class="st2" x1="37" y1="106.3" x2="47.4" y2="106.3"/>
</g>
<g id="Approve">
	<ellipse id="ellipse1342" class="st0" cx="330.5" cy="94.7" rx="23.4" ry="23.4"/>
	<path id="path1344" class="st1" d="M331,110.3L331,110.3c-1.1,0.8-2.6,0.6-3.4-0.5l-0.1-0.1l-12.2-18.4c-0.8-1.2-0.5-2.8,0.6-3.6
		l0,0c1.1-0.8,2.6-0.6,3.4,0.5l0.1,0.1l12.2,18.4C332.4,107.9,332.1,109.5,331,110.3z"/>
	<path id="path1346" class="st1" d="M328,110L328,110c-1.2-1-1.4-2.6-0.5-3.9l25.1-31.5c0.9-1.1,2.5-1.2,3.6-0.3l0.1,0.1l0,0
		c1.1,1,1.4,2.6,0.5,3.9l-25.1,31.5c-0.9,1.1-2.5,1.2-3.5,0.3C328.1,110.1,328,110.1,328,110z"/>
</g>
<g id="Developer_Machine">
	<rect id="rect1407" x="459.8" y="109.4" class="st5" width="22.4" height="14.1"/>
	<path id="rect1409" class="st0" d="M435.5,68.3h71c2.4,0,4.3,1.9,4.3,4.3V112c0,2.4-1.9,4.3-4.3,4.3h-71c-2.4,0-4.3-1.9-4.3-4.3
		V72.7C431.2,70.3,433.1,68.3,435.5,68.3z"/>
	
		<linearGradient id="rect1411_00000062899513855939324180000014019585968246445441_" gradientUnits="userSpaceOnUse" x1="434.7217" y1="673.5411" x2="507.1217" y2="673.5411" gradientTransform="matrix(1 0 0 1 0 -581.3911)">
		<stop  offset="0" style="stop-color:#FFFFFF"/>
		<stop  offset="1" style="stop-color:#FFFFFF"/>
	</linearGradient>
	
		<rect id="rect1411" x="434.7" y="72" style="fill:url(#rect1411_00000062899513855939324180000014019585968246445441_);" width="72.4" height="40.3"/>
	<path id="rect1413" class="st0" d="M458.7,123h23.9c0.3,0,0.6,0.3,0.6,0.6v0.2c0,0.3-0.3,0.6-0.6,0.6h-23.9c-0.3,0-0.6-0.3-0.6-0.6
		v-0.2C458.1,123.2,458.4,123,458.7,123z"/>
	<rect id="rect1415" x="460.8" y="78.1" class="st1" width="20.8" height="5.6"/>
	<rect id="rect1417" x="462.9" y="86.7" class="st1" width="16.2" height="5.6"/>
	<rect id="rect1419" x="459.8" y="96.8" class="st1" width="22.4" height="9.6"/>
	<line id="line1421" class="st7" x1="471" y1="96.8" x2="471" y2="92.4"/>
	<line id="line1423" class="st7" x1="471" y1="86.7" x2="471" y2="83.7"/>
</g>
<g id="Implement_Machine">
	<path id="rect1426" class="st0" d="M618.5,123.1h24c0.3,0,0.6,0.3,0.6,0.6v0.2c0,0.3-0.3,0.6-0.6,0.6h-24c-0.3,0-0.6-0.3-0.6-0.6
		v-0.2C617.9,123.3,618.2,123.1,618.5,123.1z"/>
	<rect id="rect1428" x="619.6" y="109.5" class="st5" width="22.4" height="14.1"/>
	<path id="rect1430" class="st0" d="M595.3,68.4h70.9c2.4,0,4.3,1.9,4.3,4.3v39.4c0,2.4-1.9,4.3-4.3,4.3h-70.9
		c-2.4,0-4.3-1.9-4.3-4.3V72.8C591,70.4,592.9,68.4,595.3,68.4z"/>
	
		<linearGradient id="rect1432_00000008132154827853764390000011640261028043969707_" gradientUnits="userSpaceOnUse" x1="594.5217" y1="673.6411" x2="666.9218" y2="673.6411" gradientTransform="matrix(1 0 0 1 0 -581.3911)">
		<stop  offset="0" style="stop-color:#FFFFFF"/>
		<stop  offset="1" style="stop-color:#FFFFFF"/>
	</linearGradient>
	
		<rect id="rect1432" x="594.5" y="72.1" style="fill:url(#rect1432_00000008132154827853764390000011640261028043969707_);" width="72.4" height="40.3"/>
	<circle id="circle1434" class="st1" cx="630.5" cy="92.5" r="13.9"/>
	<path id="path1436" class="st9" d="M626.1,86.6v12.9c0,0.5,0.4,0.9,0.9,0.9c0.2,0,0.3-0.1,0.5-0.1l9.9-6.4c0.4-0.3,0.6-0.9,0.3-1.3
		c-0.1-0.1-0.2-0.2-0.3-0.3l-9.9-6.4c-0.4-0.3-1-0.2-1.3,0.3C626.2,86.2,626.1,86.4,626.1,86.6z"/>
</g>
<text transform="matrix(1 0 0 1 11.2503 150.6631)" class="st10 st11">REQUEST</text>
<text transform="matrix(1 0 0 1 153.5389 150.6634)" class="st10 st11">ANALYSIS</text>
<text transform="matrix(1 0 0 1 295.6454 151.1428)" class="st10 st11">APPROVAL</text>
<text transform="matrix(1 0 0 1 415.0391 150.6634)" class="st10 st11">DEVELOPMENT</text>
<text transform="matrix(1 0 0 1 583.2763 150.6632)" class="st10 st11">PRODUCTION</text>
<line class="st12" x1="42.3" y1="159.6" x2="42.2" y2="192.5"/>
<rect x="0.2" y="202.9" class="st13" width="94.4" height="103.3"/>
<text transform="matrix(1 0 0 1 0.2045 211.4322)"><tspan x="0" y="0" class="st14 st15">Lorem</tspan><tspan x="32.2" y="0" class="st14 st15"> </tspan><tspan x="34.5" y="0" class="st14 st15">ipsum</tspan><tspan x="65.5" y="0" class="st14 st15"> </tspan><tspan x="67.7" y="0" class="st14 st15">dolor </tspan><tspan x="0" y="14.4" class="st14 st15">sit</tspan><tspan x="11.5" y="14.4" class="st14 st15"> </tspan><tspan x="14.6" y="14.4" class="st14 st15">amet,</tspan><tspan x="42.9" y="14.4" class="st14 st15"> </tspan><tspan x="46" y="14.4" class="st14 st15">consecte</tspan><tspan x="90.8" y="14.4" class="st14 st15">-</tspan><tspan x="0" y="28.8" class="st14 st15">tur</tspan><tspan x="14.5" y="28.8" class="st14 st15 st16"> </tspan><tspan x="19.8" y="28.8" class="st14 st15">adipiscing</tspan><tspan x="71.1" y="28.8" class="st14 st15 st16"> </tspan><tspan x="76.3" y="28.8" class="st14 st15">elit, </tspan><tspan x="0" y="43.2" class="st14 st15">sed</tspan><tspan x="17.5" y="43.2" class="st14 st15 st17"> </tspan><tspan x="27.5" y="43.2" class="st14 st15">do</tspan><tspan x="40.9" y="43.2" class="st14 st15 st17"> </tspan><tspan x="50.9" y="43.2" class="st14 st15">eiusmod </tspan><tspan x="0" y="57.6" class="st14 st15">tempor</tspan><tspan x="37.3" y="57.6" class="st14 st15 st18"> </tspan><tspan x="43.2" y="57.6" class="st14 st15">incididunt </tspan></text>
<line class="st12" x1="190" y1="159" x2="190" y2="191.9"/>
<rect x="147.9" y="202.3" class="st13" width="94.4" height="103.3"/>
<text transform="matrix(1 0 0 1 147.9488 210.8196)"><tspan x="0" y="0" class="st14 st15">Lorem</tspan><tspan x="32.2" y="0" class="st14 st15"> </tspan><tspan x="34.5" y="0" class="st14 st15">ipsum</tspan><tspan x="65.5" y="0" class="st14 st15"> </tspan><tspan x="67.7" y="0" class="st14 st15">dolor </tspan><tspan x="0" y="14.4" class="st14 st15">sit</tspan><tspan x="11.5" y="14.4" class="st14 st15"> </tspan><tspan x="14.6" y="14.4" class="st14 st15">amet,</tspan><tspan x="42.9" y="14.4" class="st14 st15"> </tspan><tspan x="46" y="14.4" class="st14 st15">consecte</tspan><tspan x="90.8" y="14.4" class="st14 st15">-</tspan><tspan x="0" y="28.8" class="st14 st15">tur</tspan><tspan x="14.5" y="28.8" class="st14 st15 st16"> </tspan><tspan x="19.8" y="28.8" class="st14 st15">adipiscing</tspan><tspan x="71.1" y="28.8" class="st14 st15 st16"> </tspan><tspan x="76.3" y="28.8" class="st14 st15">elit, </tspan><tspan x="0" y="43.2" class="st14 st15">sed</tspan><tspan x="17.5" y="43.2" class="st14 st15 st17"> </tspan><tspan x="27.5" y="43.2" class="st14 st15">do</tspan><tspan x="40.9" y="43.2" class="st14 st15 st17"> </tspan><tspan x="50.9" y="43.2" class="st14 st15">eiusmod </tspan><tspan x="0" y="57.6" class="st14 st15">tempor</tspan><tspan x="37.3" y="57.6" class="st14 st15 st18"> </tspan><tspan x="43.2" y="57.6" class="st14 st15">incididunt </tspan></text>
<line class="st12" x1="331.4" y1="159" x2="331.4" y2="191.9"/>
<rect x="289.3" y="202.3" class="st13" width="94.4" height="103.3"/>
<text transform="matrix(1 0 0 1 289.3398 210.8196)"><tspan x="0" y="0" class="st14 st15">Lorem</tspan><tspan x="32.2" y="0" class="st14 st15"> </tspan><tspan x="34.5" y="0" class="st14 st15">ipsum</tspan><tspan x="65.5" y="0" class="st14 st15"> </tspan><tspan x="67.7" y="0" class="st14 st15">dolor </tspan><tspan x="0" y="14.4" class="st14 st15">sit</tspan><tspan x="11.5" y="14.4" class="st14 st15"> </tspan><tspan x="14.6" y="14.4" class="st14 st15">amet,</tspan><tspan x="42.9" y="14.4" class="st14 st15"> </tspan><tspan x="46" y="14.4" class="st14 st15">consecte</tspan><tspan x="90.8" y="14.4" class="st14 st15">-</tspan><tspan x="0" y="28.8" class="st14 st15">tur</tspan><tspan x="14.5" y="28.8" class="st14 st15 st16"> </tspan><tspan x="19.8" y="28.8" class="st14 st15">adipiscing</tspan><tspan x="71.1" y="28.8" class="st14 st15 st16"> </tspan><tspan x="76.3" y="28.8" class="st14 st15">elit, </tspan><tspan x="0" y="43.2" class="st14 st15">sed</tspan><tspan x="17.5" y="43.2" class="st14 st15 st17"> </tspan><tspan x="27.5" y="43.2" class="st14 st15">do</tspan><tspan x="40.9" y="43.2" class="st14 st15 st17"> </tspan><tspan x="50.9" y="43.2" class="st14 st15">eiusmod </tspan><tspan x="0" y="57.6" class="st14 st15">tempor</tspan><tspan x="37.3" y="57.6" class="st14 st15 st18"> </tspan><tspan x="43.2" y="57.6" class="st14 st15">incididunt </tspan></text>
<line class="st12" x1="470.7" y1="159" x2="470.7" y2="191.9"/>
<rect x="428.6" y="202.3" class="st13" width="94.4" height="103.3"/>
<text transform="matrix(1 0 0 1 428.6441 210.8196)"><tspan x="0" y="0" class="st14 st15">Lorem</tspan><tspan x="32.2" y="0" class="st14 st15"> </tspan><tspan x="34.5" y="0" class="st14 st15">ipsum</tspan><tspan x="65.5" y="0" class="st14 st15"> </tspan><tspan x="67.7" y="0" class="st14 st15">dolor </tspan><tspan x="0" y="14.4" class="st14 st15">sit</tspan><tspan x="11.5" y="14.4" class="st14 st15"> </tspan><tspan x="14.6" y="14.4" class="st14 st15">amet,</tspan><tspan x="42.9" y="14.4" class="st14 st15"> </tspan><tspan x="46" y="14.4" class="st14 st15">consecte</tspan><tspan x="90.8" y="14.4" class="st14 st15">-</tspan><tspan x="0" y="28.8" class="st14 st15">tur</tspan><tspan x="14.5" y="28.8" class="st14 st15 st16"> </tspan><tspan x="19.8" y="28.8" class="st14 st15">adipiscing</tspan><tspan x="71.1" y="28.8" class="st14 st15 st16"> </tspan><tspan x="76.3" y="28.8" class="st14 st15">elit, </tspan><tspan x="0" y="43.2" class="st14 st15">sed</tspan><tspan x="17.5" y="43.2" class="st14 st15 st17"> </tspan><tspan x="27.5" y="43.2" class="st14 st15">do</tspan><tspan x="40.9" y="43.2" class="st14 st15 st17"> </tspan><tspan x="50.9" y="43.2" class="st14 st15">eiusmod </tspan><tspan x="0" y="57.6" class="st14 st15">tempor</tspan><tspan x="37.3" y="57.6" class="st14 st15 st18"> </tspan><tspan x="43.2" y="57.6" class="st14 st15">incididunt </tspan></text>
<line class="st12" x1="630.4" y1="159" x2="630.3" y2="191.9"/>
<rect x="588.3" y="202.3" class="st13" width="94.4" height="103.3"/>
<text transform="matrix(1 0 0 1 588.2963 210.8196)"><tspan x="0" y="0" class="st14 st15">Lorem</tspan><tspan x="32.2" y="0" class="st14 st15"> </tspan><tspan x="34.5" y="0" class="st14 st15">ipsum</tspan><tspan x="65.5" y="0" class="st14 st15"> </tspan><tspan x="67.7" y="0" class="st14 st15">dolor </tspan><tspan x="0" y="14.4" class="st14 st15">sit</tspan><tspan x="11.5" y="14.4" class="st14 st15"> </tspan><tspan x="14.6" y="14.4" class="st14 st15">amet,</tspan><tspan x="42.9" y="14.4" class="st14 st15"> </tspan><tspan x="46" y="14.4" class="st14 st15">consecte</tspan><tspan x="90.8" y="14.4" class="st14 st15">-</tspan><tspan x="0" y="28.8" class="st14 st15">tur</tspan><tspan x="14.5" y="28.8" class="st14 st15 st16"> </tspan><tspan x="19.8" y="28.8" class="st14 st15">adipiscing</tspan><tspan x="71.1" y="28.8" class="st14 st15 st16"> </tspan><tspan x="76.3" y="28.8" class="st14 st15">elit, </tspan><tspan x="0" y="43.2" class="st14 st15">sed</tspan><tspan x="17.5" y="43.2" class="st14 st15 st17"> </tspan><tspan x="27.5" y="43.2" class="st14 st15">do</tspan><tspan x="40.9" y="43.2" class="st14 st15 st17"> </tspan><tspan x="50.9" y="43.2" class="st14 st15">eiusmod </tspan><tspan x="0" y="57.6" class="st14 st15">tempor</tspan><tspan x="37.3" y="57.6" class="st14 st15 st18"> </tspan><tspan x="43.2" y="57.6" class="st14 st15">incididunt </tspan></text>
</svg>
