<?xml version="1.0" encoding="utf-8"?>
<!-- Generator: Adobe Illustrator 26.0.0, SVG Export Plug-In . SVG Version: 6.00 Build 0)  -->
<svg version="1.1"
	 id="Layer_1" inkscape:version="1.0.2-2 (e86c870879, 2021-01-15)" xmlns:cc="http://creativecommons.org/ns#" xmlns:dc="http://purl.org/dc/elements/1.1/" xmlns:inkscape="http://www.inkscape.org/namespaces/inkscape" xmlns:rdf="http://www.w3.org/1999/02/22-rdf-syntax-ns#" xmlns:sodipodi="http://sodipodi.sourceforge.net/DTD/sodipodi-0.dtd" xmlns:svg="http://www.w3.org/2000/svg"
	 xmlns="http://www.w3.org/2000/svg" xmlns:xlink="http://www.w3.org/1999/xlink" x="0px" y="0px" viewBox="0 0 658.5 184.8"
	 style="enable-background:new 0 0 658.5 184.8;" xml:space="preserve">
<style type="text/css">
	.st0{fill:#AAAAAA;stroke:#AAAAAA;stroke-miterlimit:10;enable-background:new    ;}
	.st1{fill:#EE3839;}
	.st2{fill:none;stroke:#AAAAAA;stroke-width:1.5;stroke-miterlimit:10;enable-background:new    ;}
	
		.st3{fill:none;stroke:#EE3839;stroke-width:1.5;stroke-linecap:round;stroke-linejoin:round;stroke-miterlimit:10;enable-background:new    ;}
	.st4{fill:none;stroke:#EE3839;stroke-width:1.5;stroke-linecap:round;stroke-miterlimit:10;}
	.st5{fill:#AAAAAA;enable-background:new    ;}
	.st6{fill:url(#rect1411_00000044153044204534510470000016942384218230907286_);}
	.st7{fill:none;stroke:#EE3839;stroke-width:0.75;stroke-miterlimit:10;enable-background:new    ;}
	.st8{fill:url(#rect1432_00000114061719023223820430000009872651638408277151_);}
	.st9{fill:#FFFFFF;enable-background:new    ;}
</style>
<path class="st0" d="M193,120.9h-41c-1.7,0-3.1-1.4-3.1-3.1V68.3c0-1.7,1.4-3.1,3.1-3.1h41c1.7,0,3.1,1.4,3.1,3.1v49.5
	C196.1,119.5,194.7,120.9,193,120.9z"/>
<sodipodi:namedview  bordercolor="#666666" borderopacity="1" gridtolerance="10" guidetolerance="10" id="namedview1467" inkscape:current-layer="Lamp" inkscape:cx="81.63481" inkscape:cy="87.167644" inkscape:document-rotation="0" inkscape:pageopacity="0" inkscape:pageshadow="2" inkscape:window-height="1017" inkscape:window-maximized="1" inkscape:window-width="1920" inkscape:window-x="-8" inkscape:window-y="-8" inkscape:zoom="8.407462" objecttolerance="10" pagecolor="#ffffff" showgrid="false">
	</sodipodi:namedview>
<g id="Document">
	<path id="rect1290" class="st1" d="M156.7,111.2h33.2c0.6,0,1,0.2,1,0.4v0c0,0.2-0.5,0.4-1,0.4h-33.2c-0.6,0-1-0.2-1-0.4v0
		C155.6,111.4,156.1,111.2,156.7,111.2z"/>
	<path id="rect1290_00000031192289285484646130000005916300054481951642_" class="st1" d="M156.7,103h33.2c0.6,0,1,0.2,1,0.4v0
		c0,0.2-0.5,0.4-1,0.4h-33.2c-0.6,0-1-0.2-1-0.4v0C155.6,103.1,156.1,103,156.7,103z"/>
	<path id="rect1290_00000134954976199802566680000006418826952640858763_" class="st1" d="M156.7,81.7h33.2c0.6,0,1,0.2,1,0.4v0
		c0,0.2-0.5,0.4-1,0.4h-33.2c-0.6,0-1-0.2-1-0.4v0C155.6,81.9,156.1,81.7,156.7,81.7z"/>
	<path id="rect1290_00000029030014843488023590000005051310086760212407_" class="st1" d="M156.7,90.1h33.2c0.6,0,1,0.2,1,0.4v0
		c0,0.2-0.5,0.4-1,0.4h-33.2c-0.6,0-1-0.2-1-0.4v0C155.6,90.3,156.1,90.1,156.7,90.1z"/>
	<path id="rect1290_00000022558161751959867030000004415887230455778705_" class="st1" d="M156.7,96.5h33.2c0.6,0,1,0.2,1,0.3v0
		c0,0.2-0.5,0.3-1,0.3h-33.2c-0.6,0-1-0.2-1-0.3v0C155.6,96.6,156.1,96.5,156.7,96.5z"/>
	<path id="rect1290_00000156551394665619918540000003162997053576253837_" class="st1" d="M156.2,75.6h19.2c0.3,0,0.6,0.2,0.6,0.4v0
		c0,0.2-0.3,0.4-0.6,0.4h-19.2c-0.3,0-0.6-0.2-0.6-0.4v0C155.6,75.8,155.9,75.6,156.2,75.6z"/>
</g>
<g id="Lamp">
	<path id="path1311" class="st2" d="M28.5,113.3v1c0,0.7-0.6,1.3-1.3,1.3c0,0,0,0,0,0h-1c-0.7,0-1.3-0.6-1.3-1.3c0,0,0,0,0,0v-1"/>
	<path id="path1313" class="st3" d="M23.5,103.1V89c0,0-1.5-2.2-3.1,0s6.4,1.8,6.4,1.8"/>
	<path id="path1315" class="st3" d="M30.1,103.6V89c0,0,1.6-2.2,3.1,0c1.6,2.2-6.5,1.8-6.5,1.8"/>
	<line id="line1317" class="st4" x1="0" y1="87.4" x2="4.2" y2="87.4"/>
	<line id="line1319" class="st4" x1="2.4" y1="75.6" x2="5.9" y2="77.1"/>
	<line id="line1321" class="st4" x1="10.8" y1="65.4" x2="13.2" y2="68.9"/>
	<line id="line1323" class="st4" x1="27.3" y1="60.3" x2="27.3" y2="64.2"/>
	<line id="line1325" class="st4" x1="43" y1="65.4" x2="40.8" y2="68.9"/>
	<line id="line1327" class="st4" x1="50.9" y1="75.6" x2="47.4" y2="77.1"/>
	<line id="line1329" class="st4" x1="53.4" y1="87.4" x2="49" y2="87.4"/>
	<path id="path1331" class="st2" d="M31.9,103.1v8.4c0,0.7-0.6,1.3-1.3,1.3h-7.7c-0.7,0-1.3-0.6-1.3-1.3v-8.4"/>
	<ellipse id="ellipse1333" class="st2" cx="27.3" cy="87.4" rx="16.5" ry="16.7"/>
	<line id="line1337" class="st2" x1="21.5" y1="109.7" x2="31.9" y2="109.7"/>
	<line id="line1339" class="st2" x1="21.5" y1="106.3" x2="31.9" y2="106.3"/>
</g>
<g id="Approve">
	<ellipse id="ellipse1342" class="st0" cx="315" cy="94.7" rx="23.4" ry="23.4"/>
	<path id="path1344" class="st1" d="M315.5,110.3L315.5,110.3c-1.1,0.8-2.6,0.6-3.4-0.5c0,0-0.1-0.1-0.1-0.1l-12.2-18.4
		c-0.8-1.2-0.5-2.8,0.6-3.6l0,0c1.1-0.8,2.6-0.6,3.4,0.5c0,0,0.1,0.1,0.1,0.1l12.2,18.4C316.9,107.9,316.6,109.5,315.5,110.3z"/>
	<path id="path1346" class="st1" d="M312.5,110L312.5,110c-1.2-1-1.4-2.6-0.5-3.9l25.1-31.5c0.9-1.1,2.5-1.2,3.6-0.3
		c0,0,0.1,0.1,0.1,0.1l0,0c1.1,1,1.4,2.6,0.5,3.9l-25.1,31.5c-0.9,1.1-2.5,1.2-3.5,0.3C312.6,110.1,312.5,110.1,312.5,110z"/>
</g>
<g id="Developer_Machine">
	<rect id="rect1407" x="444.3" y="109.4" class="st5" width="22.4" height="14.1"/>
	<path id="rect1409" class="st0" d="M420,68.3H491c2.4,0,4.3,1.9,4.3,4.3v39.4c0,2.4-1.9,4.3-4.3,4.3H420c-2.4,0-4.3-1.9-4.3-4.3
		V72.7C415.7,70.3,417.6,68.3,420,68.3z"/>
	
		<linearGradient id="rect1411_00000021114292974079242590000012380920043264358589_" gradientUnits="userSpaceOnUse" x1="419.2263" y1="-113.6106" x2="491.5763" y2="-113.6106" gradientTransform="matrix(1 0 0 -1 0 -21.3911)">
		<stop  offset="0" style="stop-color:#FFFFFF"/>
		<stop  offset="1" style="stop-color:#FFFFFF"/>
	</linearGradient>
	
		<rect id="rect1411" x="419.2" y="72" style="fill:url(#rect1411_00000021114292974079242590000012380920043264358589_);" width="72.4" height="40.3"/>
	<path id="rect1413" class="st0" d="M443.2,123h23.9c0.3,0,0.6,0.3,0.6,0.6v0.2c0,0.3-0.3,0.6-0.6,0.6h-23.9c-0.3,0-0.6-0.3-0.6-0.6
		v-0.2C442.6,123.2,442.9,123,443.2,123z"/>
	<rect id="rect1415" x="445.3" y="78.1" class="st1" width="20.8" height="5.6"/>
	<rect id="rect1417" x="447.4" y="86.7" class="st1" width="16.2" height="5.6"/>
	<rect id="rect1419" x="444.3" y="96.8" class="st1" width="22.4" height="9.6"/>
	<line id="line1421" class="st7" x1="455.5" y1="96.8" x2="455.5" y2="92.4"/>
	<line id="line1423" class="st7" x1="455.5" y1="86.7" x2="455.5" y2="83.7"/>
</g>
<g id="Implement_Machine">
	<path id="rect1426" class="st0" d="M603,123.1H627c0.3,0,0.6,0.3,0.6,0.6v0.2c0,0.3-0.3,0.6-0.6,0.6H603c-0.3,0-0.6-0.3-0.6-0.6
		v-0.2C602.4,123.3,602.7,123.1,603,123.1z"/>
	<rect id="rect1428" x="604.1" y="109.5" class="st5" width="22.4" height="14.1"/>
	<path id="rect1430" class="st0" d="M579.8,68.4h70.9c2.4,0,4.3,1.9,4.3,4.3v39.4c0,2.4-1.9,4.3-4.3,4.3h-70.9
		c-2.4,0-4.3-1.9-4.3-4.3V72.8C575.5,70.4,577.4,68.4,579.8,68.4z"/>
	
		<linearGradient id="rect1432_00000081637486430441478920000006864678558313050041_" gradientUnits="userSpaceOnUse" x1="579.0301" y1="-113.7068" x2="651.3801" y2="-113.7068" gradientTransform="matrix(1 0 0 -1 0 -21.3911)">
		<stop  offset="0" style="stop-color:#FFFFFF"/>
		<stop  offset="1" style="stop-color:#FFFFFF"/>
	</linearGradient>
	
		<rect id="rect1432" x="579" y="72.1" style="fill:url(#rect1432_00000081637486430441478920000006864678558313050041_);" width="72.4" height="40.3"/>
	<circle id="circle1434" class="st1" cx="615" cy="92.5" r="13.9"/>
	<path id="path1436" class="st9" d="M610.6,86.6v12.9c0,0.5,0.4,0.9,0.9,0.9c0.2,0,0.3-0.1,0.5-0.1l9.9-6.4c0.4-0.3,0.6-0.9,0.3-1.3
		c-0.1-0.1-0.2-0.2-0.3-0.3l-9.9-6.4c-0.4-0.3-1-0.2-1.3,0.3C610.7,86.2,610.6,86.4,610.6,86.6z"/>
</g>
</svg>
