<?xml version="1.0" encoding="utf-8"?>
<!-- Generator: Adobe Illustrator 26.0.0, SVG Export Plug-In . SVG Version: 6.00 Build 0)  -->
<svg version="1.1" id="Layer_1" xmlns="http://www.w3.org/2000/svg" xmlns:xlink="http://www.w3.org/1999/xlink" x="0px" y="0px"
	 viewBox="0 0 1407.3 998.2" style="enable-background:new 0 0 1407.3 998.2;" xml:space="preserve">
<style type="text/css">
	.st0{fill:#353535;}
	.st1{fill:#D8D8D8;}
	.st2{fill:#EE3839;}
	.st3{fill:#919191;}
	.st4{fill:none;}
	.st5{fill:#FFFFFF;}
	.st6{font-family:'JosefinSans-Bold';}
	.st7{font-size:50px;}
	.st8{fill:#515151;}
	.st9{fill:#CC1721;}
	.st10{fill:#6D6D6D;}
</style>
<rect x="28" y="24" class="st0" width="443" height="268.3"/>
<rect x="468.9" y="24" class="st1" width="909.1" height="268.3"/>
<rect x="937.1" y="358" class="st2" width="443" height="268.3"/>
<rect x="28" y="358" class="st1" width="909.1" height="268.3"/>
<rect x="28.7" y="692" class="st3" width="443" height="268.3"/>
<rect x="469.6" y="692" class="st1" width="909.1" height="268.3"/>
<rect x="67.3" y="72" class="st4" width="367.8" height="194.1"/>
<text transform="matrix(1 0 0 1 67.3042 109.5435)" class="st5 st6 st7">Development</text>
<rect x="974.7" y="386.1" class="st4" width="367.8" height="194.1"/>
<text transform="matrix(1 0 0 1 974.6868 423.5867)" class="st5 st6 st7">Task Mining</text>
<rect x="66.2" y="718.2" class="st4" width="367.8" height="194.1"/>
<text transform="matrix(1 0 0 1 66.2369 755.6696)" class="st5 st6 st7">Documentation</text>
<rect x="401.1" y="224.5" class="st8" width="67.8" height="67.8"/>
<rect x="333.2" y="157.7" class="st8" width="67.9" height="66.9"/>
<rect x="265.2" y="224.5" class="st8" width="67.9" height="67.8"/>
<rect x="401.1" y="90.8" class="st8" width="67.8" height="66.9"/>
<rect x="1176.3" y="559.4" class="st9" width="67.9" height="66.9"/>
<rect x="1244.2" y="492.6" class="st9" width="67.9" height="66.9"/>
<rect x="1312.2" y="559.4" class="st9" width="67.9" height="66.9"/>
<rect x="28.7" y="892.5" class="st10" width="67.9" height="67.8"/>
<rect x="96.6" y="825.1" class="st10" width="67.9" height="67.8"/>
<rect x="164.5" y="892.5" class="st10" width="67.9" height="67.8"/>
<rect x="232.4" y="825.1" class="st10" width="67.9" height="67.8"/>
</svg>
